<svg xmlns="http://www.w3.org/2000/svg" viewBox="0 0 142.25 23.71"><defs><style>.cls-1{fill:#fff;}</style></defs><title>Recurso 1</title><g id="Capa_2" data-name="Capa 2"><g id="Capa_1-2" data-name="Capa 1"><path class="cls-1" d="M8.3,14.56V12.84c0-.74.34-1.1,1-1.1s.94.41.94,1.23a8,8,0,0,1-.75,4.08,3.69,3.69,0,0,1-3.34,1.56,3.39,3.39,0,0,1-3-1.37,6.39,6.39,0,0,1-.66-3.38V7.41c0-.37-.18-.56-.52-.56H1a1,1,0,0,1-.73-.28,1,1,0,0,1,0-1.36.86.86,0,0,1,.63-.3H2c.3,0,.46-.17.46-.51V1.64a.91.91,0,0,1,1-1c.65,0,1,.34,1,1V4.51c0,.27.16.4.48.4H7.84c.68,0,1,.32,1,.94s-.36,1-1.1,1H4.81c-.25,0-.38.19-.38.56V14c0,1.88.63,2.82,1.88,2.82S8.24,16.08,8.3,14.56Z"/><path class="cls-1" d="M15.76.94l-.1,5.24a7.3,7.3,0,0,1,2-1.41,5.25,5.25,0,0,1,2.1-.39,5.23,5.23,0,0,1,3.72,1.31,4.56,4.56,0,0,1,1.4,3.47v4.48c0,1.06,0,1.64,0,1.75.07.89.3,1.34.7,1.34a1.88,1.88,0,0,0,.61-.15,2.33,2.33,0,0,1,.43,0c.67,0,1,.31,1,.92s-.43.91-1.29.91c-.23,0-.57,0-1-.08a16.21,16.21,0,0,0-1.83-.14,7.26,7.26,0,0,0-1.07.06,13.45,13.45,0,0,1-1.4.16,1.15,1.15,0,0,1-.8-.28.91.91,0,0,1-.33-.71.77.77,0,0,1,.29-.6,1,1,0,0,1,.65-.24,2.27,2.27,0,0,1,.7.14,1.54,1.54,0,0,0,.46.08c.53,0,.81-.58.83-1.75,0-.21,0-.63.05-1.26v-2.6a8.32,8.32,0,0,0-.54-3.68,2.88,2.88,0,0,0-2.75-1.4,3.47,3.47,0,0,0-3.1,1.45,6.09,6.09,0,0,0-.7,3.2v1.93a2.23,2.23,0,0,1-.1.54v.51c0,1,0,1.61,0,1.77.1.88.36,1.31.81,1.31a2.41,2.41,0,0,0,.62-.12,2.24,2.24,0,0,1,.59-.12.77.77,0,0,1,.88.86c0,.65-.39,1-1.19,1-.25,0-.63,0-1.13-.08-.69-.07-1.27-.11-1.76-.11-.31,0-.73,0-1.27.08-.72.07-1.18.11-1.38.11-.74,0-1.11-.33-1.11-1s.35-.83,1-.83a1.31,1.31,0,0,1,.52.08,3.62,3.62,0,0,0,.66.11c.29,0,.48-.27.59-.82a25.32,25.32,0,0,0,.17-3.34V7.76a46.13,46.13,0,0,0-.16-5.09c-.11-.71-.36-1.06-.75-1.06a3.19,3.19,0,0,0-.56.08,2.6,2.6,0,0,1-.59.08c-.61,0-.92-.28-.92-.86a.82.82,0,0,1,.32-.64A1.19,1.19,0,0,1,11.84,0l.92.08a9.46,9.46,0,0,0,1.1.05,5.23,5.23,0,0,0,.67-.06A3.82,3.82,0,0,1,15.15,0c.41,0,.61.3.61.89Z"/><path class="cls-1" d="M40.87,10.34a3.33,3.33,0,0,1-.13,1.25c-.09.15-.35.23-.78.23H31.4a.77.77,0,0,0-.46.09.4.4,0,0,0-.11.31A4.87,4.87,0,0,0,32,15.6a4,4,0,0,0,5.19.7,2.9,2.9,0,0,0,1.27-1.64l.25-.78a.83.83,0,0,1,.89-.64.89.89,0,0,1,1,1,3.88,3.88,0,0,1-1.77,3.1,6.41,6.41,0,0,1-4,1.36,5.67,5.67,0,0,1-4.48-1.89,7.45,7.45,0,0,1-1.67-5.09,7.82,7.82,0,0,1,1.77-5.32,5.85,5.85,0,0,1,4.62-2,5.58,5.58,0,0,1,4.17,1.68A5.9,5.9,0,0,1,40.87,10.34Zm-9.74-.67c0,.25.19.37.59.37h6.44c.38,0,.57-.12.57-.37A3.33,3.33,0,0,0,37.65,7.2a3.53,3.53,0,0,0-2.54-1,4,4,0,0,0-2.74,1.09A3.17,3.17,0,0,0,31.13,9.67Z"/><path class="cls-1" d="M52.53,14.69V3.94c0-1.32-.45-2-1.36-2a4.41,4.41,0,0,0-.56,0,5.49,5.49,0,0,1-.72.07c-.57,0-.85-.3-.85-.89s.39-.94,1.18-.94l.4,0,1.31.16a14.23,14.23,0,0,0,1.61.08c.45,0,1,0,1.61-.08C56.62.3,57.73.24,58.48.24a14.06,14.06,0,0,1,3,.27A4.61,4.61,0,0,1,64.2,2.18a4.88,4.88,0,0,1,1,3.11,4.61,4.61,0,0,1-1.74,3.87,8.06,8.06,0,0,1-5,1.34h-3c-.29,0-.47.05-.55.15a1.22,1.22,0,0,0-.12.68v.53A22.45,22.45,0,0,0,55,16q.19.72,1.17.72a1.77,1.77,0,0,0,.56-.08l.72-.05a.75.75,0,0,1,.84.86c0,.64-.4,1-1.18,1l-.38-.06-1.34-.19a13.86,13.86,0,0,0-1.7-.08,12.61,12.61,0,0,0-1.53.08l-1.55.22-.16,0h-.19c-.81,0-1.21-.32-1.21-.94a.88.88,0,0,1,.24-.63.79.79,0,0,1,.59-.26,4.47,4.47,0,0,1,.73.08,2,2,0,0,0,.56.05C52.07,16.7,52.53,16,52.53,14.69ZM55,2.52A3.51,3.51,0,0,0,54.79,4V8c0,.48.34.76,1,.83h1.55a14,14,0,0,0,3.17-.3,2.87,2.87,0,0,0,2.39-3.14Q62.92,2,58.57,2C56.42,2,55.22,2.15,55,2.52Z"/><path class="cls-1" d="M71.84,7.92h8.59V4c0-1.34-.45-2-1.37-2l-.57,0a5.21,5.21,0,0,1-.72.06c-.57,0-.85-.29-.85-.88S77.3.24,78.07.24a9.21,9.21,0,0,1,1.37.18,11.21,11.21,0,0,0,1.82.17A16.18,16.18,0,0,0,84,.37a7.48,7.48,0,0,1,1-.13c.79,0,1.18.32,1.18,1s-.27.87-.83.87A5,5,0,0,1,84.68,2c-.29,0-.51,0-.65,0-.91,0-1.37.67-1.37,2V14.69c0,1.34.45,2,1.34,2a5.25,5.25,0,0,0,.66-.06,4.32,4.32,0,0,1,.66-.07c.56,0,.83.29.83.86s-.39,1-1.18,1a7.29,7.29,0,0,1-1-.17,10.75,10.75,0,0,0-2-.18,16,16,0,0,0-2.49.16c-.79.12-1.22.19-1.29.19-.79,0-1.18-.32-1.18-1a.76.76,0,0,1,.85-.87c.15,0,.36,0,.65.05a5,5,0,0,0,.64.06c.76,0,1.2-.5,1.35-1.48,0-.12,0-.93,0-2.42v-3H71.84v3.06c0,1.49,0,2.29,0,2.42.14,1,.59,1.47,1.34,1.47a5.58,5.58,0,0,0,.66-.06,4.11,4.11,0,0,1,.65-.07.75.75,0,0,1,.84.86c0,.64-.4,1-1.19,1-.12,0-.5-.06-1.15-.17A14.26,14.26,0,0,0,70.76,18a15,15,0,0,0-2.41.21l-.65.11-.35.06q-1.23,0-1.23-1a.87.87,0,0,1,.86-.87,5,5,0,0,1,.72.07,2.91,2.91,0,0,0,.57.06c.91,0,1.37-.67,1.37-2V3.92c0-1.34-.46-2-1.37-2a2.74,2.74,0,0,0-.59.08,4.05,4.05,0,0,1-.7.08.82.82,0,0,1-.61-.27.88.88,0,0,1-.25-.62c0-.62.41-.94,1.23-.94a7.35,7.35,0,0,1,1,.14,14.62,14.62,0,0,0,2.49.18A12.27,12.27,0,0,0,72.52.4,14.54,14.54,0,0,1,74.17.24c.79,0,1.19.32,1.19,1a.88.88,0,0,1-.24.63.84.84,0,0,1-.6.25A4.22,4.22,0,0,1,73.8,2c-.29,0-.48-.07-.59-.07-.88,0-1.33.67-1.34,2Z"/><path class="cls-1" d="M90.67,14.69V3.94c0-1.32-.46-2-1.36-2a4.29,4.29,0,0,0-.56,0,5.49,5.49,0,0,1-.72.07.78.78,0,0,1-.86-.89c0-.62.4-.94,1.18-.94l.4,0,1.32.16a14.1,14.1,0,0,0,1.61.08c.44,0,1,0,1.61-.08C94.75.3,95.86.24,96.61.24a14,14,0,0,1,3,.27,4.55,4.55,0,0,1,2.77,1.67,4.88,4.88,0,0,1,1,3.11,4.63,4.63,0,0,1-1.73,3.87,8.1,8.1,0,0,1-5,1.34h-3a.72.72,0,0,0-.55.15,1.22,1.22,0,0,0-.12.68v.53a23.48,23.48,0,0,0,.2,4.12q.21.72,1.17.72a1.73,1.73,0,0,0,.56-.08l.73-.05a.75.75,0,0,1,.83.86c0,.64-.39,1-1.18,1l-.38-.06-1.34-.19a13.67,13.67,0,0,0-1.69-.08,12.37,12.37,0,0,0-1.53.08l-1.56.22-.16,0h-.19c-.8,0-1.21-.32-1.21-.94a.85.85,0,0,1,.25-.63.77.77,0,0,1,.59-.26,4.48,4.48,0,0,1,.72.08,2,2,0,0,0,.56.05Q90.67,16.7,90.67,14.69ZM93.11,2.52A3.29,3.29,0,0,0,92.92,4V8c0,.48.34.76,1,.83H95.5a14,14,0,0,0,3.17-.3,2.88,2.88,0,0,0,2.39-3.14q0-3.4-4.35-3.41C94.56,2,93.36,2.15,93.11,2.52Z"/><path class="cls-1" d="M110.59,18.72a5.67,5.67,0,0,1-4.51-1.95,7.68,7.68,0,0,1-1.69-5.22,7.69,7.69,0,0,1,1.7-5.23,6.47,6.47,0,0,1,9.2,0A7.54,7.54,0,0,1,117,11.47a7.69,7.69,0,0,1-1.74,5.26A5.87,5.87,0,0,1,110.59,18.72Zm.15-12.57a3.6,3.6,0,0,0-3,1.32,6.16,6.16,0,0,0-1.19,3.73v.35a6.53,6.53,0,0,0,1.06,4,3.5,3.5,0,0,0,3,1.44,3.71,3.71,0,0,0,3.09-1.44,6.39,6.39,0,0,0,1.11-4Q114.83,6.15,110.74,6.15Z"/><path class="cls-1" d="M123.29,7v8.35c0,.91.27,1.37.74,1.37a3.92,3.92,0,0,0,.67-.12,3.73,3.73,0,0,1,.44,0,.79.79,0,0,1,.89.9c0,.58-.36.87-1.09.87-.29,0-.74,0-1.37-.11a14.24,14.24,0,0,0-1.44-.11,11.84,11.84,0,0,0-1.29.11,11.83,11.83,0,0,1-1.26.11h-.13c-.75,0-1.12-.32-1.12-.95s.3-.82.92-.82h.19l.24,0c.45.08.71.13.79.13a.57.57,0,0,0,.61-.42,11.83,11.83,0,0,0,.15-2.17l0-1.89v-9a6.51,6.51,0,0,0-.08-1.08.74.74,0,0,0-.75-.62l-.7.11a3.4,3.4,0,0,1-.48.05c-.61,0-.91-.29-.91-.87s.35-.9,1.07-.9a3.68,3.68,0,0,1,.51,0l.64.1a5.46,5.46,0,0,0,.73.06,4.55,4.55,0,0,0,.81-.1,5.18,5.18,0,0,1,.8-.09c.41,0,.62.26.62.78a2,2,0,0,1,0,.4C123.36,2.56,123.29,4.51,123.29,7Z"/><path class="cls-1" d="M131,7.41l3.09,9.08,3.27-8.94a1.93,1.93,0,0,0,.14-.59c0-.31-.21-.46-.62-.46a2.17,2.17,0,0,0-.51,0l-.57.06a.77.77,0,0,1-.88-.86c0-.61.38-.92,1.15-.92a3.9,3.9,0,0,1,.54.06l1,.13a5.1,5.1,0,0,0,.8.06A9.54,9.54,0,0,0,139.76,5a10.76,10.76,0,0,1,1.34-.12c.77,0,1.15.3,1.15.9a.78.78,0,0,1-.88.88,1.07,1.07,0,0,1-.41-.06,2.85,2.85,0,0,0-.48-.08c-.34,0-.69.46-1,1.37L135.78,17a18.74,18.74,0,0,1-2.28,4.41,5.6,5.6,0,0,1-4.57,2.33,4.43,4.43,0,0,1-2.75-.83,2.45,2.45,0,0,1-1.11-2,1.93,1.93,0,0,1,.48-1.36,1.62,1.62,0,0,1,1.26-.52,1.48,1.48,0,0,1,1,.36,1.16,1.16,0,0,1,.41.9,1,1,0,0,1-.78,1.1,1.73,1.73,0,0,0,1.53.59,3.65,3.65,0,0,0,2.56-1.06,3.19,3.19,0,0,0,1.14-2.38A8.53,8.53,0,0,0,132,16l-3-7.47-.32-.86c-.3-.8-.65-1.21-1-1.21a3.61,3.61,0,0,0-.57.07c-.28,0-.46.07-.55.07-.63,0-.94-.29-.94-.86s.41-.92,1.23-.92a3.29,3.29,0,0,1,.62,0L128.5,5h.22l.32,0a19.19,19.19,0,0,0,2.07-.12,10.51,10.51,0,0,1,1.1-.1c.75,0,1.13.3,1.13.89s-.34.89-1,.89a3.31,3.31,0,0,1-.51-.06l-.51,0a.33.33,0,0,0-.38.38A1.78,1.78,0,0,0,131,7.41Z"/></g></g></svg>